<svg width="12" height="20" viewBox="0 0 12 20" fill="none" xmlns="http://www.w3.org/2000/svg">
<path d="M11.6775 1.68626C11.7805 1.59084 11.8611 1.4786 11.9145 1.35595C11.968 1.23329 11.9933 1.10262 11.9891 0.971395C11.9848 0.84017 11.9511 0.710961 11.8898 0.591145C11.8285 0.47133 11.7409 0.363254 11.6318 0.273089C11.5228 0.182924 11.3946 0.112435 11.2545 0.0656467C11.1143 0.0188586 10.9651 -0.0033124 10.8151 0.000399767C10.6652 0.00411193 10.5176 0.0336344 10.3807 0.0872817C10.2438 0.140929 10.1204 0.21765 10.0174 0.313065L0.312102 9.30779C0.111676 9.49335 0 9.73902 0 9.99438C0 10.2497 0.111676 10.4954 0.312102 10.681L10.0174 19.6767C10.1197 19.7742 10.2431 19.8529 10.3805 19.9083C10.5179 19.9637 10.6665 19.9947 10.8177 19.9994C10.9688 20.0041 11.1196 19.9824 11.2611 19.9357C11.4026 19.889 11.5321 19.8181 11.6421 19.7272C11.7521 19.6363 11.8403 19.5272 11.9017 19.4062C11.9631 19.2852 11.9964 19.1547 11.9997 19.0223C12.003 18.89 11.9762 18.7584 11.9209 18.6351C11.8656 18.5119 11.7829 18.3995 11.6775 18.3045L2.71215 9.99438L11.6775 1.68626Z" fill="#3D3D3D"/>
</svg>
