<svg width="160" height="130" viewBox="0 0 160 130" fill="none" xmlns="http://www.w3.org/2000/svg">
<g id="celebration icon">
<path id="Vector" d="M84.0251 125C112.091 125 134.843 102.39 134.843 74.5C134.843 46.6096 112.091 24 84.0251 24C55.9593 24 33.2075 46.6096 33.2075 74.5C33.2075 102.39 55.9593 125 84.0251 125Z" fill="#FFCC4D"/>
<path id="Vector_2" d="M87.5471 102C90.8817 102 93.5849 98.866 93.5849 95C93.5849 91.134 90.8817 88 87.5471 88C84.2126 88 81.5094 91.134 81.5094 95C81.5094 98.866 84.2126 102 87.5471 102Z" fill="#664500"/>
<path id="Vector_3" d="M58.3106 81C57.7802 80.9994 57.2596 80.8584 56.8031 80.5917C56.3466 80.325 55.9707 79.9424 55.7147 79.4835C55.4586 79.0247 55.3317 78.5065 55.3472 77.9827C55.3627 77.459 55.52 76.949 55.8027 76.5057C58.5213 72.246 66.7871 64.9607 78.6263 67.822C79.3751 68.0212 80.0153 68.502 80.4098 69.1615C80.8043 69.821 80.9218 70.6068 80.7372 71.3508C80.5526 72.0948 80.0805 72.7379 79.422 73.1424C78.7634 73.5469 77.9708 73.6808 77.2136 73.5154C66.517 70.9296 60.8838 79.5429 60.8274 79.6309C60.5594 80.0507 60.1879 80.3965 59.7477 80.636C59.3076 80.8754 58.8131 81.0007 58.3106 81ZM93.8461 70.0296C93.2336 70.0301 92.636 69.8434 92.1352 69.4952C91.6344 69.147 91.2549 68.6542 91.0488 68.0845C90.8427 67.5149 90.82 66.8962 90.984 66.3133C91.1479 65.7304 91.4903 65.2118 91.9644 64.8288C101.391 57.1947 112.034 60.2495 116.346 62.9349C117.013 63.3486 117.486 64.0069 117.661 64.7651C117.837 65.5232 117.7 66.3191 117.281 66.9777C116.862 67.6363 116.196 68.1036 115.428 68.2767C114.661 68.4499 113.855 68.3148 113.188 67.9012C112.779 67.6549 104.13 62.5567 95.7248 69.3641C95.1961 69.7952 94.5317 70.0306 93.8461 70.0296Z" fill="#664500"/>
<path id="Vector_4" d="M73.1681 111C72.814 111 72.4647 110.919 72.1477 110.762C71.8306 110.605 71.5544 110.377 71.3407 110.096C71.1271 109.815 70.9817 109.489 70.9162 109.143C70.8507 108.796 70.8667 108.44 70.963 108.101C72.2976 103.421 71.7509 98.8956 69.4664 95.6833C67.9485 93.5499 65.7862 92.2462 63.5323 92.1033C62.2679 92.0274 61.3089 90.9424 61.3883 89.6873C61.4677 88.4322 62.5519 87.405 63.8163 87.557C67.4599 87.7819 70.8805 89.7846 73.2017 93.0485C76.2894 97.3912 77.0804 103.329 75.367 109.341C75.232 109.818 74.9442 110.238 74.5473 110.537C74.1504 110.837 73.6662 110.999 73.1681 111ZM106.877 101.698C106.429 101.698 105.991 101.567 105.618 101.321C102.054 98.9807 100.06 94.8871 100.145 90.0915C100.234 85.1227 102.616 80.5095 106.205 78.3335C106.461 78.1774 106.746 78.0733 107.044 78.0272C107.341 77.981 107.644 77.9938 107.937 78.0646C108.229 78.1355 108.504 78.2631 108.747 78.4402C108.99 78.6172 109.195 78.8402 109.35 79.0963C109.507 79.3518 109.612 79.6355 109.658 79.9313C109.705 80.2271 109.692 80.529 109.621 80.8199C109.549 81.1107 109.421 81.3847 109.243 81.6261C109.065 81.8675 108.841 82.0715 108.584 82.2265C106.339 83.588 104.784 86.782 104.723 90.1705C104.662 93.3767 105.911 96.0541 108.138 97.5158C108.549 97.7858 108.862 98.1804 109.03 98.6411C109.198 99.1018 109.212 99.6041 109.07 100.074C108.929 100.543 108.639 100.954 108.244 101.247C107.848 101.539 107.369 101.698 106.877 101.698Z" fill="#E2A62D"/>
<path id="Vector_5" d="M84.3072 24.8342C84.1536 24.6815 83.9542 24.5846 83.7403 24.5586C83.7403 24.5586 35.9748 15.4033 33.9081 17.2447C31.8444 19.0891 34.997 68.0753 34.997 68.0753C35.012 68.3206 35.066 68.5296 35.1979 68.678C37.0097 70.7495 49.47 62.6089 63.0311 50.5039C76.5953 38.3959 86.119 26.9057 84.3072 24.8342Z" fill="#DD2E44"/>
<path id="Vector_6" d="M34.3297 18.0033C34.2746 18.1209 34.2357 18.2453 34.2139 18.373C34.6986 22.4939 39.3818 56.4017 42.2997 67C46.6779 64.5864 51.1263 61.3071 56.3522 57.2223C51.913 49.212 36.7963 17.6276 34.3297 18.0033Z" fill="#EA596E"/>
<path id="Vector_7" d="M124.165 104L91.7662 100.253C88.3036 99.9594 82.2148 99.9307 82.5273 94.7829C82.8123 90.1153 88.7785 90.8343 93.1881 91.4469L125.786 96.5486L124.165 104Z" fill="#3B88C3"/>
<path id="Vector_8" d="M125.786 96.1822L111.842 94.0219C110.211 93.7563 108.757 95.9524 108.685 98.2769C108.602 100.861 109.435 102.168 111.083 102.472L124.769 104L125.786 96.1822Z" fill="#88C9F9"/>
<path id="Vector_9" d="M138.643 95.8171L130.782 103L116.73 87.8149L124.591 80.6321C126.562 78.8408 129.167 77.8977 131.836 78.0088C134.505 78.1199 137.021 79.2761 138.835 81.2249L139.239 81.6629C141.041 83.6222 141.99 86.2103 141.878 88.8622C141.766 91.5141 140.603 94.0144 138.643 95.8171Z" fill="#3B88C3"/>
<path id="Vector_10" d="M130.7 103.26C134.099 100.154 133.688 94.2127 129.782 89.9902C125.875 85.7677 119.952 84.8629 116.552 87.9692C113.152 91.0756 113.563 97.0167 117.47 101.239C121.377 105.462 127.3 106.367 130.7 103.26Z" fill="#88C9F9"/>
<path id="Vector_11" d="M127.87 100.201C129.57 98.6483 129.048 95.3356 126.704 92.8023C124.36 90.2691 121.082 89.4746 119.382 91.0278C117.682 92.5809 118.204 95.8936 120.548 98.4269C122.892 100.96 126.17 101.755 127.87 100.201Z" fill="#226699"/>
<path id="Vector_12" d="M40.7547 122C43.2557 122 45.283 119.985 45.283 117.5C45.283 115.015 43.2557 113 40.7547 113C38.2538 113 36.2264 115.015 36.2264 117.5C36.2264 119.985 38.2538 122 40.7547 122Z" fill="#55ACEE"/>
<path id="Vector_13" d="M120.755 29C124.089 29 126.793 26.3137 126.793 23C126.793 19.6863 124.089 17 120.755 17C117.42 17 114.717 19.6863 114.717 23C114.717 26.3137 117.42 29 120.755 29Z" fill="#55ACEE"/>
<path id="Vector_14" d="M147.925 130C151.259 130 153.962 127.314 153.962 124C153.962 120.686 151.259 118 147.925 118C144.59 118 141.887 120.686 141.887 124C141.887 127.314 144.59 130 147.925 130Z" fill="#55ACEE"/>
<g id="Vector_15">
<path d="M47.5205 104.729L40.5326 88.0887L34.2142 106L47.5205 104.729ZM110.692 32.8887L98.7369 35.8516L101.726 23.9998L110.692 32.8887Z" fill="#EA596E"/>
<path d="M17.3314 80.7289L10.3435 64.0889L4.02515 82L17.3314 80.7289ZM80.5031 8.88889L68.5478 11.8519L71.5367 0L80.5031 8.88889Z" fill="#EA596E"/>
</g>
<path id="Vector_16" d="M0 44L12.0755 29.7114L3.02113 24L0 44Z" fill="#77B255"/>
<path id="Vector_17" d="M147.925 64L160 49.7114L150.946 44L147.925 64Z" fill="#77B255"/>
</g>
</svg>
