<svg width="33" height="31" viewBox="0 0 33 31" fill="none" xmlns="http://www.w3.org/2000/svg">
<path d="M5.5 9C7.433 9 9 7.433 9 5.5C9 3.567 7.433 2 5.5 2C3.567 2 2 3.567 2 5.5C2 7.433 3.567 9 5.5 9Z" stroke="white" stroke-width="3" stroke-linecap="round" stroke-linejoin="round"/>
<path d="M31 5.67999C29.248 5.10057 27.3826 4.88758 25.5339 5.05588C23.6853 5.22417 21.898 5.76971 20.2968 6.65441C18.6956 7.53911 17.3191 8.74166 16.2632 10.1781C15.2074 11.6146 14.4977 13.2504 14.1837 14.9713C13.8697 16.6922 13.959 18.4569 14.4453 20.142C14.9316 21.8272 15.8032 23.3922 16.9993 24.728C18.1954 26.0638 19.6871 27.1381 21.3704 27.8759C23.0537 28.6138 24.888 28.9974 26.7452 29C28.1943 29.002 29.6331 28.7721 31 28.32" stroke="white" stroke-width="3" stroke-linecap="round" stroke-linejoin="round"/>
</svg>
