<svg width="130" height="23" viewBox="0 0 130 23" fill="none" xmlns="http://www.w3.org/2000/svg">
<path d="M14.632 16.192C14.664 16.224 14.696 16.256 14.728 16.288C14.776 16.304 14.824 16.328 14.872 16.36C14.936 16.376 15.008 16.392 15.088 16.408C15.168 16.424 15.272 16.432 15.4 16.432L15.304 17.68C15.112 17.696 14.976 17.752 14.896 17.848C14.816 17.928 14.752 18.032 14.704 18.16C14.672 18.288 14.648 18.424 14.632 18.568C14.632 18.696 14.608 18.816 14.56 18.928C14.464 18.96 14.24 19 13.888 19.048C13.552 19.096 13.128 19.152 12.616 19.216C12.104 19.28 11.528 19.344 10.888 19.408C10.248 19.472 9.568 19.52 8.848 19.552H8.032L7.672 19.48L5.992 19.624C5.4 19.656 4.872 19.688 4.408 19.72C3.96 19.768 3.568 19.8 3.232 19.816C2.528 19.896 2.064 19.92 1.84 19.888L0.328 19.144L0.256 17.872C0.4 17.824 0.52 17.728 0.616 17.584C0.728 17.424 0.808 17.248 0.856 17.056L3.568 16.888L4.648 16.456L5.968 14.536C6.112 14.52 6.24 14.512 6.352 14.512C6.48 14.496 6.584 14.472 6.664 14.44C6.84 14.408 7.008 14.352 7.168 14.272C7.328 14.176 7.432 14.056 7.48 13.912C7.48 13.768 7.384 13.6 7.192 13.408L6.904 13.12C6.616 13.136 6.248 13.136 5.8 13.12C5.384 13.088 4.936 13.056 4.456 13.024C3.992 12.976 3.504 12.92 2.992 12.856C2.816 12.856 2.664 12.816 2.536 12.736C2.408 12.656 2.272 12.552 2.128 12.424C2.08 12.392 2.024 12.344 1.96 12.28C1.912 12.216 1.848 12.136 1.768 12.04C1.608 11.832 1.432 11.504 1.24 11.056C1.128 10.816 1.04 10.592 0.976 10.384C0.928 10.176 0.928 10.024 0.976 9.928C1.296 9.432 1.608 8.912 1.912 8.368C2.216 7.808 2.504 7.272 2.776 6.76C3.288 5.704 3.696 4.888 4 4.312L5.224 3.448L7.168 3.496L8.128 3.88C8.096 4.008 8.048 4.16 7.984 4.336C7.936 4.512 7.888 4.68 7.84 4.84C7.792 4.984 7.744 5.112 7.696 5.224C7.664 5.32 7.664 5.36 7.696 5.344C7.744 5.344 7.816 5.304 7.912 5.224C8.024 5.144 8.144 5.056 8.272 4.96C8.384 4.88 8.504 4.808 8.632 4.744C8.776 4.68 8.912 4.656 9.04 4.672C9.52 4.88 9.976 5.032 10.408 5.128C10.84 5.208 11.304 5.224 11.8 5.176C12.12 5.592 12.416 6.168 12.688 6.904C12.832 7.24 12.936 7.576 13 7.912C13.08 8.248 13.112 8.536 13.096 8.776L12.328 10.12C12.248 10.296 12.152 10.44 12.04 10.552C11.976 10.616 11.92 10.664 11.872 10.696L11.032 12.448L10.552 14.248C10.36 14.104 10.128 14.144 9.856 14.368C9.6 14.576 9.512 14.848 9.592 15.184L8.656 16.288C8.176 16.656 8.16 16.944 8.608 17.152C8.928 17.136 9.144 17.056 9.256 16.912C9.528 16.992 9.88 17.008 10.312 16.96C10.76 16.896 11.232 16.808 11.728 16.696C12.224 16.6 12.728 16.504 13.24 16.408C13.752 16.296 14.216 16.224 14.632 16.192ZM7.624 6.568L6.952 6.616C6.776 6.808 6.576 7.032 6.352 7.288C6.128 7.528 5.912 7.8 5.704 8.104C5.496 8.392 5.304 8.696 5.128 9.016C4.968 9.336 4.864 9.648 4.816 9.952L6.52 10.96C6.664 10.816 6.864 10.672 7.12 10.528C7.392 10.368 7.672 10.232 7.96 10.12C8.248 9.992 8.52 9.888 8.776 9.808C9.032 9.728 9.224 9.664 9.352 9.616C9.48 9.6 9.552 9.504 9.568 9.328C9.584 9.136 9.56 8.92 9.496 8.68C9.432 8.44 9.344 8.208 9.232 7.984C9.12 7.76 9.008 7.6 8.896 7.504C8.832 7.472 8.752 7.448 8.656 7.432C8.576 7.4 8.488 7.368 8.392 7.336C8.296 7.32 8.208 7.304 8.128 7.288C8.048 7.272 7.984 7.256 7.936 7.24L7.624 6.568ZM22.3195 22.816L22.1995 20.824C22.1835 20.712 22.1915 20.576 22.2235 20.416C22.2555 20.256 22.3035 20.08 22.3675 19.888C22.3995 19.792 22.4155 19.696 22.4155 19.6C22.4155 19.504 22.4155 19.416 22.4155 19.336C22.4155 19.24 22.4235 19.144 22.4395 19.048C22.4555 18.968 22.5035 18.872 22.5835 18.76C22.9035 18.632 23.1275 18.512 23.2555 18.4C23.3995 18.288 23.4875 18.184 23.5195 18.088C23.5675 18.008 23.5915 17.936 23.5915 17.872C23.6075 17.808 23.6555 17.76 23.7355 17.728L29.1355 16.264C29.1515 16.232 29.1675 16.192 29.1835 16.144C29.1995 16.096 29.2075 16.048 29.2075 16C29.2075 15.968 29.1995 15.928 29.1835 15.88C29.1835 15.832 29.1595 15.784 29.1115 15.736L28.6315 15.52L25.9675 15.784L24.3115 16.384L23.7595 16.36L23.5915 14.416L24.8635 13.816L29.4235 13.024L32.7355 13.312L32.9755 15.184L32.6635 17.368L26.2075 19.024C26.0795 19.056 25.9755 19.112 25.8955 19.192C25.8315 19.288 25.7755 19.392 25.7275 19.504C25.6955 19.616 25.6715 19.728 25.6555 19.84C25.6395 19.968 25.6315 20.08 25.6315 20.176C25.9995 20.16 26.3675 20.144 26.7355 20.128C27.1035 20.112 27.4715 20.104 27.8395 20.104C28.1915 20.088 28.5355 20.072 28.8715 20.056C29.2235 20.04 29.5675 20.008 29.9035 19.96C30.0955 19.944 30.2795 19.904 30.4555 19.84C30.6475 19.776 30.8235 19.712 30.9835 19.648C31.1595 19.6 31.3115 19.544 31.4395 19.48C31.5675 19.432 31.6795 19.408 31.7755 19.408C31.8715 19.408 32.0555 19.384 32.3275 19.336C32.5995 19.288 32.9035 19.224 33.2395 19.144C33.5755 19.064 33.9115 18.984 34.2475 18.904C34.5995 18.808 34.9035 18.72 35.1595 18.64L35.5195 20.08V20.704C35.5195 20.832 35.2395 21.008 34.6795 21.232C34.4075 21.344 34.1195 21.448 33.8155 21.544C33.5115 21.64 33.1995 21.736 32.8795 21.832C32.7195 21.88 32.5515 21.904 32.3755 21.904C32.2155 21.92 32.0395 21.92 31.8475 21.904C31.4955 21.888 31.1275 21.888 30.7435 21.904C30.5035 21.952 30.2555 21.976 29.9995 21.976C29.7595 21.992 29.5195 22.008 29.2795 22.024C29.0235 22.04 28.7675 22.048 28.5115 22.048C28.2555 22.064 27.9995 22.088 27.7435 22.12L22.3195 22.816ZM33.8875 9.088L35.2075 8.872L35.1595 9.88C35.1275 10.12 35.1195 10.304 35.1355 10.432C35.1515 10.544 35.2155 10.712 35.3275 10.936L35.0875 11.464C35.0075 11.352 34.8155 11.296 34.5115 11.296C34.3675 11.296 34.2315 11.32 34.1035 11.368C33.9915 11.4 33.9115 11.456 33.8635 11.536C33.5915 11.568 33.2715 11.6 32.9035 11.632C32.5355 11.664 32.1275 11.704 31.6795 11.752C31.2475 11.784 30.7915 11.824 30.3115 11.872C29.8475 11.904 29.3915 11.944 28.9435 11.992C28.0475 12.072 27.2715 12.144 26.6155 12.208C25.9595 12.272 25.3115 12.288 24.6715 12.256L22.6315 12.952L21.0715 12.832L20.6395 13L20.1835 12.832L19.7515 12.16L19.5355 10.936C19.5355 10.888 19.5675 10.824 19.6315 10.744C19.7115 10.648 19.7995 10.552 19.8955 10.456C19.9755 10.36 20.0555 10.272 20.1355 10.192C20.2315 10.112 20.2955 10.056 20.3275 10.024L21.6235 9.928L23.4235 9.88C23.4555 9.96 23.5675 10 23.7595 10C23.8395 10.016 23.9275 10.04 24.0235 10.072C24.1355 10.088 24.2555 10.104 24.3835 10.12C24.6075 10.12 24.8155 9.976 25.0075 9.688L25.8235 9.64L29.5195 9.616L33.8875 9.088ZM24.3595 2.032L25.0795 4.72L25.2475 5.896L26.4955 6.184L29.9515 5.704L30.5515 5.68L30.9355 5.32L33.9595 4.816L34.3675 5.872L33.0475 7.912L29.1595 8.08L24.3115 9.016L22.6315 8.992L21.9355 6.904L21.6235 2.128L23.8315 1.552L24.3595 2.032ZM47.7976 9.784L47.0056 6.04L46.0456 4.192V3.328L46.9816 1.864H47.9656L48.8056 2.92L49.6936 2.872L51.9496 2.32L54.8536 1.384L57.3016 1.984L57.2536 4.12L56.3656 6.688L57.5896 7.048L57.5416 8.104L56.2936 9.184L52.2856 9.928L50.1736 10.024L48.5896 10.432L47.7976 9.784ZM58.4536 13.648C58.5496 13.616 58.6536 13.552 58.7656 13.456C58.8936 13.344 58.9256 13.28 58.8616 13.264C58.7816 13.248 58.9256 13.248 59.2936 13.264C59.6776 13.296 60.0216 13.264 60.3256 13.168C60.3896 13.152 60.4616 13.136 60.5416 13.12C60.6216 13.104 60.7016 13.08 60.7816 13.048C60.7816 12.792 60.7256 12.624 60.6136 12.544C60.5496 12.512 60.4856 12.496 60.4216 12.496C60.3576 12.48 60.3016 12.464 60.2536 12.448L60.3736 7.12L60.5896 6.616L60.3736 6.04L60.5416 5.272L60.6136 4.816L60.6616 3.832C60.6616 3.736 60.8936 3.672 61.3576 3.64C61.5976 3.64 61.8696 3.648 62.1736 3.664C62.4936 3.664 62.8456 3.664 63.2296 3.664C63.4856 3.68 63.6616 3.728 63.7576 3.808C63.8056 3.856 63.8456 3.904 63.8776 3.952C63.9096 3.984 63.9496 4.024 63.9976 4.072L64.6936 4.936L64.4056 6.616L63.9256 12.208L64.3576 18.28L63.2296 18.472L61.5736 18.664L60.3736 18.424L60.6616 16.624C60.7576 16.528 60.8136 16.432 60.8296 16.336C60.8616 16.224 60.8136 16.12 60.6856 16.024L60.6136 15.592L59.8936 15.544L57.5896 16.24L55.5496 16.576C55.5816 16.384 55.5576 16.208 55.4776 16.048C55.3976 15.872 55.2856 15.728 55.1416 15.616L55.4296 14.536L58.4536 13.648ZM54.8776 10.888C55.1656 10.888 55.4136 10.88 55.6216 10.864C55.8456 10.848 56.0616 10.832 56.2696 10.816C56.4776 10.784 56.6776 10.76 56.8696 10.744C57.0776 10.712 57.3016 10.672 57.5416 10.624L59.3416 11.032C59.3416 11.048 59.3336 11.112 59.3176 11.224C59.3176 11.32 59.3096 11.424 59.2936 11.536C59.2776 11.6 59.2696 11.672 59.2696 11.752C59.2696 11.832 59.2696 11.912 59.2696 11.992C59.1416 12.056 58.9256 12.128 58.6216 12.208C58.3336 12.288 58.0296 12.368 57.7096 12.448C57.3896 12.528 57.0856 12.616 56.7976 12.712C56.5256 12.808 56.3576 12.888 56.2936 12.952L51.3256 13.456L47.7736 14.368L46.5256 13.912L46.4056 12.544C46.6136 12.56 46.8296 12.528 47.0536 12.448C47.2936 12.352 47.5416 12.24 47.7976 12.112C48.0376 11.984 48.2696 11.856 48.4936 11.728C48.7336 11.584 48.9656 11.472 49.1896 11.392L52.8616 11.056L54.8776 10.888ZM49.1176 18.16L50.4856 15.784L50.9896 14.776L51.9016 14.152L53.0296 13.936C53.0616 14.048 53.1016 14.144 53.1496 14.224C53.2136 14.304 53.2696 14.384 53.3176 14.464C53.4296 14.656 53.4856 14.8 53.4856 14.896L53.0056 17.488C52.9416 17.84 52.8136 18.16 52.6216 18.448C52.4296 18.736 52.1176 18.896 51.6856 18.928L49.6936 19.12L49.1176 18.16ZM53.9656 4.216L51.5416 4.624L50.0536 5.56L50.2696 7.888H50.8456L52.0456 7.528L53.2696 7.456L53.7736 6.952L53.9656 4.216ZM92.1184 13.792L92.4304 14.152C92.4304 14.232 92.4224 14.344 92.4064 14.488C92.4064 14.616 92.4224 14.744 92.4544 14.872C92.4704 15.016 92.5024 15.144 92.5504 15.256C92.5984 15.352 92.6704 15.408 92.7664 15.424L92.8384 19.096L92.5744 20.896V21.832H91.9504L89.9824 21.496L89.3824 21.976L84.9184 22.432L83.3104 22.312C83.0704 22.264 82.8224 22.256 82.5664 22.288C82.3264 22.32 82.0864 22.408 81.8464 22.552L82.0624 20.512C82.2064 20.608 82.3104 20.648 82.3744 20.632C82.4544 20.632 82.5104 20.6 82.5424 20.536C82.5904 20.472 82.6064 20.384 82.5904 20.272C82.5904 20.16 82.5824 20.056 82.5664 19.96L81.9424 18.16L82.2304 15.64L82.1104 14.896L82.3024 14.608L82.1104 13.936L83.2384 13.888C83.6544 14.064 83.9424 14.112 84.1024 14.032C84.1344 14.016 84.1664 14 84.1984 13.984C84.2464 13.968 84.2864 13.952 84.3184 13.936C84.3504 13.92 84.3904 13.904 84.4384 13.888C84.4864 13.872 84.5344 13.848 84.5824 13.816L84.9904 14.224L84.7744 15.568L85.7104 15.664L88.2064 15.496L89.5744 15.688C89.6704 15.448 89.7184 15.336 89.7184 15.352C89.7344 15.352 89.6784 15.264 89.5504 15.088L89.2144 14.632L89.7664 13.552H92.0704L92.1184 13.792ZM80.1664 4.096C80.2144 4.144 80.2384 4.112 80.2384 4C80.2544 3.968 80.2624 3.928 80.2624 3.88C80.2624 3.816 80.2704 3.744 80.2864 3.664C80.2864 3.568 80.3024 3.456 80.3344 3.328C80.3664 3.2 80.4304 3.104 80.5264 3.04C81.3104 2.576 82.0544 2.584 82.7584 3.064L84.6064 4.432C84.7504 4.592 84.8624 4.872 84.9424 5.272C85.0384 5.672 85.0944 6.128 85.1104 6.64C85.1424 7.136 85.1424 7.656 85.1104 8.2C85.0784 8.728 85.0384 9.2 84.9904 9.616C84.9424 9.728 84.8464 9.92 84.7024 10.192C84.5584 10.448 84.3744 10.648 84.1504 10.792L80.9584 12.688C79.9184 12.976 78.8864 12.928 77.8624 12.544C77.4784 12.544 77.1024 12.424 76.7344 12.184C76.3664 11.944 76.1344 11.624 76.0384 11.224C75.8464 10.904 75.7344 10.576 75.7024 10.24C75.6864 9.888 75.7264 9.56 75.8224 9.256L77.6224 5.128C77.6704 5.08 77.7264 5.008 77.7904 4.912C77.8544 4.816 77.9184 4.712 77.9824 4.6C78.1424 4.424 78.3664 4.2 78.6544 3.928L80.1664 4.096ZM89.7664 11.896L89.3104 10.288L89.5024 7.336L89.3584 6.664L89.1424 5.008L89.3824 2.776C89.3984 2.392 89.5024 2.152 89.6944 2.056C89.7904 2.008 89.9024 1.992 90.0304 2.008C90.1744 2.008 90.3424 2.008 90.5344 2.008C90.7264 2.024 90.9744 2.064 91.2784 2.128C91.5824 2.176 91.9424 2.248 92.3584 2.344L92.9584 3.112L92.6704 6.064L92.5264 6.52L92.7184 8.416L92.5504 8.92L92.4064 10.048L92.2864 11.368L91.9984 12.112L89.7664 11.896ZM79.8064 7.624L79.6864 7.792C79.6544 7.856 79.6144 7.92 79.5664 7.984C79.5184 8.032 79.4704 8.096 79.4224 8.176C79.3264 8.32 79.2384 8.472 79.1584 8.632C79.0944 8.792 79.0704 8.92 79.0864 9.016C79.0864 9.192 79.1024 9.344 79.1344 9.472C79.1344 9.584 79.2384 9.688 79.4464 9.784C79.6064 9.864 79.8224 9.896 80.0944 9.88H80.8384C80.9184 9.896 81.0144 9.904 81.1264 9.904C81.2544 9.888 81.4144 9.856 81.6064 9.808C81.9904 9.712 82.2224 9.536 82.3024 9.28C82.3504 9.136 82.3664 9 82.3504 8.872C82.3504 8.728 82.3344 8.608 82.3024 8.512C82.2384 8.432 82.2064 8.344 82.2064 8.248C82.1744 8.136 82.1904 8.016 82.2544 7.888C82.2544 7.504 82.2944 7.232 82.3744 7.072C82.4544 6.864 82.5264 6.728 82.5904 6.664C82.6224 6.616 82.6384 6.488 82.6384 6.28C82.6384 6.072 82.5984 5.912 82.5184 5.8C82.4384 5.704 82.3344 5.632 82.2064 5.584C82.0784 5.536 81.9424 5.504 81.7984 5.488C81.6544 5.472 81.5184 5.472 81.3904 5.488C81.2784 5.488 81.1984 5.512 81.1504 5.56L79.8064 7.624ZM89.5744 19.432C89.6224 19.336 89.6544 19.184 89.6704 18.976C89.6864 18.768 89.6944 18.608 89.6944 18.496C89.6944 18.432 89.6784 18.32 89.6464 18.16C89.6464 18.096 89.6384 18.04 89.6224 17.992C89.6224 17.928 89.6224 17.856 89.6224 17.776L86.8144 17.68L85.4944 17.896L85.2064 19.696C85.4944 19.648 85.7904 19.616 86.0944 19.6C86.3984 19.584 86.7024 19.576 87.0064 19.576L89.5744 19.432ZM112.877 4.24L113.981 4.144L115.373 4.504C115.517 4.648 115.549 4.928 115.469 5.344L115.541 5.824L115.565 7.888L115.685 12.064L115.205 13.096L115.493 14.992L115.637 18.184L114.917 18.712L111.845 18.856L111.869 17.968L112.061 17.416L112.205 15.976L112.349 13.576C112.269 12.872 112.205 12.328 112.157 11.944C112.125 11.544 112.101 11.304 112.085 11.224C112.069 11.064 112.109 10.816 112.205 10.48V7.408L112.037 5.368L112.877 4.24ZM101.501 5.08C101.837 5.08 102.237 5.088 102.701 5.104C103.181 5.12 103.661 5.136 104.141 5.152C104.605 5.168 105.029 5.184 105.413 5.2C105.797 5.216 106.069 5.216 106.229 5.2C106.613 5.2 106.885 5.24 107.045 5.32C107.189 5.384 107.365 5.584 107.573 5.92C107.781 6.24 107.941 6.568 108.053 6.904C108.149 7.224 108.173 7.48 108.125 7.672C108.093 7.864 108.005 8.056 107.861 8.248L106.325 10.336L105.701 10.792L105.365 11.392C105.237 11.52 105.101 11.608 104.957 11.656C104.813 11.688 104.685 11.728 104.573 11.776C104.445 11.84 104.341 11.936 104.261 12.064C104.197 12.192 104.181 12.392 104.213 12.664C104.229 12.776 104.293 12.848 104.405 12.88C104.517 12.912 104.645 12.944 104.789 12.976C104.949 12.992 105.109 13.016 105.269 13.048C105.445 13.08 105.605 13.144 105.749 13.24L106.253 13.288L106.901 13.864L109.229 14.824C109.485 14.872 109.613 14.976 109.613 15.136C109.629 15.28 109.613 15.4 109.565 15.496L109.589 15.712L109.229 16.216L108.365 16.552C108.285 16.696 108.173 16.864 108.029 17.056C107.885 17.232 107.773 17.36 107.693 17.44L106.661 17.656C106.517 17.64 106.333 17.56 106.109 17.416C105.885 17.304 105.725 17.2 105.629 17.104C105.581 17.04 105.525 16.968 105.461 16.888C105.413 16.792 105.357 16.696 105.293 16.6C105.229 16.52 105.165 16.44 105.101 16.36C105.037 16.264 104.981 16.176 104.933 16.096C104.869 16.016 104.789 15.944 104.693 15.88C104.613 15.816 104.533 15.752 104.453 15.688C104.357 15.624 104.261 15.56 104.165 15.496C104.085 15.432 104.013 15.352 103.949 15.256C103.837 15.128 103.725 15.024 103.613 14.944C103.517 14.848 103.437 14.776 103.373 14.728C103.229 14.664 103.085 14.68 102.941 14.776C102.797 14.856 102.677 14.96 102.581 15.088C102.485 15.232 102.413 15.344 102.365 15.424C102.317 15.488 102.261 15.56 102.197 15.64C102.149 15.72 102.069 15.824 101.957 15.952C101.845 16.064 101.677 16.24 101.453 16.48L100.781 16.624C100.573 16.976 100.317 17.264 100.013 17.488C99.7246 17.712 99.4366 17.76 99.1486 17.632C98.8766 17.504 98.5646 17.328 98.2126 17.104C98.0526 17.008 97.9886 16.848 98.0206 16.624C98.0526 16.4 98.1006 16.216 98.1646 16.072C98.2286 15.944 98.3246 15.776 98.4526 15.568C98.5966 15.344 98.7806 15.072 99.0046 14.752C99.2286 14.432 99.4606 14.112 99.7006 13.792C99.9566 13.472 100.221 13.144 100.493 12.808C100.749 12.472 100.997 12.144 101.237 11.824C101.493 11.504 101.725 11.216 101.933 10.96C102.141 10.688 102.317 10.456 102.461 10.264C102.621 10.056 102.725 9.904 102.773 9.808C103.109 9.696 103.389 9.536 103.613 9.328C103.837 9.12 103.997 8.912 104.093 8.704C104.189 8.496 104.213 8.32 104.165 8.176C104.117 8.016 103.997 7.928 103.805 7.912C103.389 7.912 103.005 7.952 102.653 8.032C102.317 8.112 102.021 8.208 101.765 8.32C101.589 8.416 101.437 8.496 101.309 8.56C101.181 8.624 101.045 8.68 100.901 8.728C100.757 8.76 100.589 8.792 100.397 8.824C100.221 8.856 99.9966 8.888 99.7246 8.92C99.4046 8.952 99.1006 8.984 98.8126 9.016C98.5246 9.032 98.3486 9.032 98.2846 9.016C98.1246 8.536 97.8126 8.208 97.3486 8.032L97.6606 6.04L101.501 5.08ZM122.187 12.568L122.715 9.256C122.731 9.208 122.771 9.136 122.835 9.04C122.867 8.976 122.915 8.904 122.979 8.824C123.043 8.744 123.131 8.664 123.243 8.584C123.627 8.328 123.819 7.984 123.819 7.552C124.155 7.264 124.411 6.968 124.587 6.664C124.779 6.36 124.915 6.072 124.995 5.8C125.075 5.528 125.123 5.28 125.139 5.056C125.171 4.832 125.195 4.656 125.211 4.528L124.755 3.592C124.483 3.368 124.195 3.216 123.891 3.136C123.603 3.04 123.467 2.992 123.483 2.992C123.355 3.008 123.243 3.032 123.147 3.064C123.067 3.08 122.995 3.024 122.931 2.896C122.867 2.768 122.779 2.72 122.667 2.752C122.555 2.784 122.435 2.8 122.307 2.8C122.099 2.8 121.899 2.816 121.707 2.848C121.531 2.864 121.419 2.872 121.371 2.872C121.291 2.872 121.227 2.88 121.179 2.896C121.115 2.912 121.035 2.928 120.939 2.944C120.859 2.96 120.763 2.976 120.651 2.992C120.347 3.072 120.091 3.128 119.883 3.16L119.547 3.04L119.403 2.032L119.571 1.624C119.651 1.576 119.747 1.528 119.859 1.48C119.987 1.432 120.115 1.376 120.243 1.312C120.339 1.296 120.459 1.28 120.603 1.264C120.747 1.248 120.907 1.24 121.083 1.24C121.483 1.24 121.683 1.056 121.683 0.688C121.907 0.688 122.195 0.656 122.547 0.592C122.915 0.527999 123.291 0.471999 123.675 0.423999C124.059 0.375999 124.435 0.343999 124.803 0.327999C125.187 0.311999 125.507 0.351999 125.763 0.447999C125.859 0.543999 125.987 0.639999 126.147 0.735999C126.307 0.831999 126.467 0.919999 126.627 0.999999C126.803 1.064 126.963 1.12 127.107 1.168C127.267 1.216 127.387 1.24 127.467 1.24L128.115 1.672C128.083 1.944 128.091 2.128 128.139 2.224C128.187 2.32 128.251 2.384 128.331 2.416C128.427 2.448 128.531 2.472 128.643 2.488C128.771 2.488 128.883 2.52 128.979 2.584L129.267 4.144L128.835 7.072L126.219 9.376L125.643 9.64L125.019 11.08L124.539 11.968L124.107 12.688L122.571 13.048L122.187 12.568ZM123.771 15.088C123.979 15.12 124.099 15.12 124.131 15.088C124.275 14.944 124.387 14.912 124.467 14.992C124.563 15.072 124.635 15.184 124.683 15.328C124.731 15.472 124.763 15.608 124.779 15.736C124.811 15.848 124.827 15.88 124.827 15.832L125.019 16.84L124.755 17.68L124.539 17.752C124.363 17.832 124.219 17.928 124.107 18.04C123.947 18.152 123.787 18.24 123.627 18.304C123.483 18.368 123.403 18.4 123.387 18.4C123.371 18.4 123.275 18.36 123.099 18.28C122.939 18.2 122.707 18.096 122.403 17.968C121.763 17.664 121.403 17.456 121.323 17.344C121.387 17.152 121.435 16.952 121.467 16.744C121.515 16.52 121.547 16.296 121.563 16.072C121.579 15.96 121.587 15.864 121.587 15.784C121.587 15.688 121.595 15.608 121.611 15.544C121.611 15.464 121.619 15.408 121.635 15.376C121.747 15.328 121.891 15.272 122.067 15.208C122.259 15.144 122.467 15.024 122.691 14.848L123.771 15.088Z" fill="white"/>
</svg>
